<?xml version="1.0" encoding="UTF-8"?>
<svg width="203px" height="66px" viewBox="0 0 203 66" version="1.1" xmlns="http://www.w3.org/2000/svg" xmlns:xlink="http://www.w3.org/1999/xlink">
    <!-- Generator: Sketch 51.1 (57501) - http://www.bohemiancoding.com/sketch -->
    <title>Group 17</title>
    <desc>Created with Sketch.</desc>
    <defs>
        <polygon id="path-1" points="0.156599292 0.214249505 28.0304918 0.214249505 28.0304918 29.4152198 0.156599292 29.4152198"></polygon>
        <polygon id="path-3" points="0 22.8353901 43.0169833 22.8353901 43.0169833 66 0 66"></polygon>
    </defs>
    <g id="Page-1" stroke="none" stroke-width="1" fill="none" fill-rule="evenodd">
        <g id="Desktop-Copy-6" transform="translate(-410.000000, -145.000000)">
            <g id="Group-17" transform="translate(410.000000, 145.000000)">
                <path d="M34.3513161,27.8344212 L46.6486839,27.8344212 L40.5001088,11.8444299 L34.3513161,27.8344212 Z M36.927779,3 L44.072221,3 L60,44 L52.9142919,44 L49.1666304,34.2771976 L31.8333696,34.2771976 L28.0857081,44 L21,44 L36.927779,3 Z" id="Fill-1" fill="#FFFFFF"></path>
                <g id="Group-16">
                    <path d="M82.3240135,16.7771129 L79.8697418,23.1096277 C79.8697418,23.1096277 78.5842123,22.4646574 76.5391306,22.4646574 C72.2731349,22.4646574 70.3448406,26.2172911 70.3448406,26.2172911 L70.3448406,44.3947366 L63.3323877,44.3947366 L63.3323877,16.6011129 L69.9940443,16.6011129 L69.9940443,20.6469347 C69.9940443,20.6469347 72.3901394,15.8973307 77.5324746,15.8973307 C80.04514,15.8973307 82.3240135,16.7771129 82.3240135,16.7771129" id="Fill-2" fill="#FFFFFF"></path>
                    <path d="M103.612292,35.1301881 L108.228649,39.8209802 C108.228649,39.8209802 104.255056,45.0983663 96.7752367,45.0983663 C88.4772543,45.0983663 81.8739914,38.6482277 81.8739914,30.4977723 C81.8739914,22.2887228 88.4772543,15.897396 96.7752367,15.897396 C104.196446,15.897396 108.111862,21.0573762 108.111862,21.0573762 L103.261712,25.396604 C103.261712,25.396604 100.982622,22.4647228 96.7752367,22.4647228 C92.0418744,22.4647228 89.0032317,26.1587624 89.0032317,30.4977723 C89.0032317,34.8367822 92.0418744,38.5310396 96.7752367,38.5310396 C101.508599,38.5310396 103.612292,35.1301881 103.612292,35.1301881" id="Fill-4" fill="#FFFFFF"></path>
                    <path d="M130.761538,26.3346752 C130.761538,26.3346752 128.716239,22.4646356 124.216886,22.4646356 C119.483523,22.4646356 116.561668,25.924299 116.561668,30.497903 C116.561668,35.0715069 119.483523,38.5311703 124.216886,38.5311703 C128.716239,38.5311703 130.761538,34.6611307 130.761538,34.6611307 L130.761538,26.3346752 Z M137.773991,16.6010911 L137.773991,44.3947149 L131.287515,44.3947149 L131.287515,40.7592693 C131.287515,40.7592693 128.891637,45.0982792 122.931139,45.0982792 C115.743505,45.0982792 109.432428,39.0589525 109.432428,30.497903 C109.432428,21.9370713 115.743505,15.8973089 122.931139,15.8973089 C128.716239,15.8973089 131.287515,20.2365366 131.287515,20.2365366 L131.287515,16.6010911 L137.773991,16.6010911 Z" id="Fill-6" fill="#FFFFFF"></path>
                    <path d="M163.486101,26.3346752 C163.486101,26.3346752 161.499413,22.4646356 156.882838,22.4646356 C152.149476,22.4646356 149.286231,25.924299 149.286231,30.497903 C149.286231,35.0715069 152.149476,38.5311703 156.882838,38.5311703 C161.499413,38.5311703 163.486101,34.6611307 163.486101,34.6611307 L163.486101,26.3346752 Z M170.498554,44.3947149 L164.012078,44.3947149 L164.012078,40.7592693 C164.012078,40.7592693 161.6162,45.0982792 155.655702,45.0982792 C148.468068,45.0982792 142.156991,39.0589525 142.156991,30.497903 C142.156991,21.9370713 148.468068,15.8973089 155.655702,15.8973089 C160.914825,15.8973089 163.486101,19.5327545 163.486101,19.5327545 L163.486101,0.0655861386 L170.498554,0.0655861386 L170.498554,44.3947149 Z" id="Fill-8" fill="#FFFFFF"></path>
                    <g id="Group-12" transform="translate(174.964000, 15.683168)">
                        <mask id="mask-2" fill="white">
                            <use xlink:href="#path-1"></use>
                        </mask>
                        <g id="Clip-11"></g>
                        <path d="M21.0181258,12.2347446 C20.9015554,9.83064554 18.6808585,6.60557624 14.0645007,6.60557624 C9.56471314,6.60557624 7.51941437,9.77205149 7.2858396,12.2347446 L21.0181258,12.2347446 Z M28.0305787,14.6974376 C28.0305787,15.2252198 28.0305787,16.2805663 27.972185,17.3359129 L7.2858396,17.3359129 C7.81181698,19.7988238 10.6752787,22.9650812 15.0578447,22.9650812 C19.9079944,22.9650812 22.6544516,20.1506059 22.6544516,20.1506059 L26.1606781,25.4279921 C26.1606781,25.4279921 21.777895,29.4152198 15.0578447,29.4152198 C6.64307483,29.4152198 0.156599292,22.9650812 0.156599292,14.8146257 C0.156599292,6.66438812 6.05870375,0.214249505 14.0645007,0.214249505 C21.6611076,0.214249505 28.0305787,6.13660594 28.0305787,14.6974376 Z" id="Fill-10" fill="#FFFFFF" mask="url(#mask-2)"></path>
                    </g>
                    <mask id="mask-4" fill="white">
                        <use xlink:href="#path-3"></use>
                    </mask>
                    <g id="Clip-14"></g>
                    <polygon id="Fill-13" fill="#6FB9FF" mask="url(#mask-4)" points="43.0169833 66.0000436 -6.51230769e-05 66.0000436 -6.51230769e-05 22.8353901 21.1008972 22.8353901 21.1008972 27.5640832 4.7124578 27.5640832 4.7124578 61.2713505 38.3044604 61.2713505 38.3044604 43.8044396 43.0169833 43.8044396"></polygon>
                </g>
            </g>
        </g>
    </g>
</svg>